<?xml version="1.0" standalone="no"?>
<!DOCTYPE svg PUBLIC "-//W3C//DTD SVG 20010904//EN"
 "http://www.w3.org/TR/2001/REC-SVG-20010904/DTD/svg10.dtd">
<svg version="1.0" xmlns="http://www.w3.org/2000/svg"
 width="803.000000pt" height="311.000000pt" viewBox="0 0 803.000000 311.000000"
 preserveAspectRatio="xMidYMid meet">

<g transform="translate(0.000000,311.000000) scale(0.100000,-0.100000)"
fill="#000000" stroke="none">
<path d="M2067 2056 c-20 -8 -44 -19 -52 -26 -26 -21 -55 -76 -59 -111 -2 -19
-4 -37 -5 -41 0 -5 -23 -8 -50 -8 -39 0 -51 -4 -55 -17 -2 -10 -10 -108 -15
-218 -6 -110 -13 -233 -16 -274 -3 -47 -1 -79 6 -87 9 -11 69 -14 298 -14 157
0 292 4 299 9 11 6 11 57 1 282 -6 151 -15 284 -20 296 -6 18 -17 22 -56 25
-46 3 -48 4 -54 38 -14 77 -44 117 -111 145 -45 18 -61 18 -111 1z m94 -86
c24 -13 52 -67 45 -86 -4 -12 -23 -14 -83 -12 -75 3 -78 4 -81 29 -6 53 68 96
119 69z m-137 -175 c3 -8 -2 -21 -10 -29 -8 -8 -21 -13 -29 -10 -21 8 -26 32
-9 48 16 17 40 12 48 -9z m250 1 c9 -13 7 -20 -8 -31 -32 -24 -62 15 -34 43
15 15 28 11 42 -12z"/>
<path d="M2663 1873 c-10 -3 -13 -57 -13 -218 l0 -213 -25 -16 c-27 -18 -36
-75 -12 -77 6 -1 26 -2 44 -4 17 -1 42 3 55 9 22 11 23 16 28 175 l5 164 113
-170 c115 -174 125 -183 180 -175 l22 3 0 219 c0 206 1 219 19 225 23 7 33 49
16 71 -9 13 -22 16 -59 12 -26 -3 -50 -9 -54 -13 -4 -3 -9 -82 -12 -173 l-5
-167 -104 155 c-57 85 -113 165 -124 178 -19 21 -47 27 -74 15z"/>
<path d="M3298 1866 c-189 -52 -258 -281 -128 -428 53 -61 113 -88 195 -89
218 -3 341 243 210 422 -59 81 -179 123 -277 95z m113 -87 c160 -54 156 -286
-6 -339 -73 -24 -171 34 -195 117 -28 91 19 188 105 218 50 17 54 18 96 4z"/>
<path d="M3632 1872 c-21 -14 -11 -65 16 -77 22 -10 22 -12 22 -215 0 -147 3
-209 12 -218 15 -15 187 -16 239 -2 50 14 99 49 126 89 68 101 55 277 -25 354
-54 52 -116 70 -252 74 -69 2 -131 0 -138 -5z m284 -103 c51 -31 67 -65 71
-149 4 -60 1 -82 -15 -110 -27 -49 -64 -73 -125 -80 -93 -10 -87 -22 -87 179
0 98 3 181 6 184 12 12 119 -5 150 -24z"/>
<path d="M4103 1874 c-7 -3 -13 -20 -13 -38 0 -25 6 -35 25 -44 l25 -11 2
-213 3 -213 145 -3 c140 -3 146 -2 163 20 19 22 19 22 50 4 19 -11 60 -21 99
-24 59 -4 72 -2 111 21 54 32 82 83 74 138 -8 60 -40 95 -125 135 -92 44 -112
60 -112 90 0 61 118 76 141 18 7 -20 16 -24 49 -24 39 0 40 1 40 34 0 38 -33
80 -77 97 -42 16 -121 13 -162 -6 -54 -24 -94 -88 -86 -139 9 -61 38 -91 132
-138 95 -48 121 -74 103 -107 -24 -46 -74 -52 -142 -18 -57 29 -163 27 -171
-3 -5 -19 -72 -32 -119 -23 -27 5 -28 8 -28 69 l0 63 78 3 77 3 3 37 3 37 -78
3 -78 3 0 75 0 75 53 2 c49 1 53 -1 68 -28 13 -25 20 -30 47 -27 31 3 32 5 35
53 4 80 4 80 -170 82 -84 1 -159 0 -165 -3z"/>
<path d="M4803 1874 c-7 -3 -13 -19 -13 -35 0 -22 7 -32 25 -41 l25 -11 0
-219 0 -218 45 0 45 0 0 105 0 106 113 -3 112 -3 3 -102 3 -103 44 0 45 0 0
219 c0 211 1 220 20 226 25 8 37 50 19 71 -10 12 -25 15 -61 12 -27 -3 -52 -8
-56 -12 -4 -4 -9 -56 -12 -114 l-5 -107 -110 0 -110 0 -5 107 c-3 58 -8 110
-12 114 -10 9 -99 15 -115 8z"/>
<path d="M5497 1869 c-151 -37 -236 -184 -192 -334 13 -45 28 -69 68 -109 58
-57 105 -76 189 -77 216 -2 335 258 198 431 -55 69 -176 111 -263 89z m111
-94 c73 -31 112 -86 112 -160 0 -109 -94 -198 -189 -176 -89 20 -135 80 -136
177 0 52 4 66 29 98 28 37 93 75 129 76 10 0 34 -7 55 -15z"/>
<path d="M5841 1866 c-18 -21 -6 -63 19 -71 19 -6 20 -15 20 -226 l0 -219 45
0 44 0 3 83 3 82 71 6 c98 7 136 32 164 107 19 50 21 63 10 109 -24 109 -68
135 -240 141 -106 4 -128 2 -139 -12z m261 -93 c21 -19 33 -73 24 -108 -11
-45 -45 -66 -101 -63 l-50 3 -3 84 c-4 114 -3 115 61 107 28 -4 60 -14 69 -23z"/>
</g>
</svg>
